<svg xmlns="http://www.w3.org/2000/svg" xmlns:xlink="http://www.w3.org/1999/xlink" width="500" zoomAndPan="magnify" viewBox="0 0 375 374.999991" height="500" preserveAspectRatio="xMidYMid meet" version="1.0"><defs><g/><clipPath id="4743354066"><path d="M 0 0.222656 L 375 0.222656 L 375 375 L 0 375 Z M 0 0.222656 " clip-rule="nonzero"/></clipPath><clipPath id="775fdb9767"><path d="M 187.5 0.222656 C 83.945312 0.222656 0 84.171875 0 187.722656 C 0 291.277344 83.945312 375.222656 187.5 375.222656 C 291.054688 375.222656 375 291.277344 375 187.722656 C 375 84.171875 291.054688 0.222656 187.5 0.222656 " clip-rule="nonzero"/></clipPath></defs><g clip-path="url(#4743354066)"><g clip-path="url(#775fdb9767)"><path fill="#0052ff" d="M 0 0.222656 L 375 0.222656 L 375 375.222656 L 0 375.222656 Z M 0 0.222656 " fill-opacity="1" fill-rule="nonzero"/></g></g><g fill="#ffffff" fill-opacity="1"><g transform="translate(71.015426, 370.60082)"><g><path d="M 155.046875 -247.875 C 183.003906 -247.875 208.6875 -235.460938 232.09375 -210.640625 C 255.5 -185.828125 267.203125 -157.003906 267.203125 -124.171875 C 267.203125 -91.335938 255.578125 -62.585938 232.328125 -37.921875 C 209.078125 -13.265625 184.097656 -0.9375 157.390625 -0.9375 C 130.691406 -0.9375 111.6875 -8.476562 100.375 -23.5625 C 97.863281 -8.164062 84.351562 -0.46875 59.84375 -0.46875 C 40.050781 -0.46875 27.957031 -4.707031 23.5625 -13.1875 C 21.363281 -17.90625 20.023438 -22.070312 19.546875 -25.6875 C 19.078125 -29.300781 18.84375 -34.71875 18.84375 -41.9375 L 18.84375 -323.28125 C 18.84375 -330.5 19.078125 -335.914062 19.546875 -339.53125 C 20.023438 -343.144531 21.363281 -347.148438 23.5625 -351.546875 C 27.957031 -360.035156 40.207031 -364.28125 60.3125 -364.28125 C 80.113281 -364.28125 92.054688 -360.035156 96.140625 -351.546875 C 98.648438 -346.835938 100.140625 -342.675781 100.609375 -339.0625 C 101.078125 -335.445312 101.3125 -330.03125 101.3125 -322.8125 L 101.3125 -224.78125 C 113.882812 -240.175781 131.796875 -247.875 155.046875 -247.875 Z M 113.8125 -95.65625 C 121.507812 -87.175781 131.164062 -82.9375 142.78125 -82.9375 C 154.40625 -82.9375 164.300781 -87.175781 172.46875 -95.65625 C 180.644531 -104.144531 184.734375 -113.570312 184.734375 -123.9375 C 184.734375 -134.300781 180.960938 -143.800781 173.421875 -152.4375 C 165.878906 -161.082031 155.820312 -165.40625 143.25 -165.40625 C 130.6875 -165.40625 120.710938 -161.003906 113.328125 -152.203125 C 105.953125 -143.410156 102.265625 -133.910156 102.265625 -123.703125 C 102.265625 -113.492188 106.113281 -104.144531 113.8125 -95.65625 Z M 113.8125 -95.65625 "/></g></g></g></svg>